	.include "MPlayDef.s"

	.equ	mus_rock_tunnel_grp, voicegroup000
	.equ	mus_rock_tunnel_pri, 0
	.equ	mus_rock_tunnel_rev, 0
	.equ	mus_rock_tunnel_mvl, 127
	.equ	mus_rock_tunnel_key, 0
	.equ	mus_rock_tunnel_tbs, 1
	.equ	mus_rock_tunnel_exg, 0
	.equ	mus_rock_tunnel_cmp, 1

	.section .rodata
	.global	mus_rock_tunnel
	.align	2

@**************** Track 1 (Midi-Chn.1) ****************@

mus_rock_tunnel_1:
	.byte	KEYSH , mus_rock_tunnel_key+0
@ 000   ----------------------------------------
	.byte	TEMPO , 67*mus_rock_tunnel_tbs/2
	.byte		VOICE , 70
	.byte		VOL   , 127*mus_rock_tunnel_mvl/mxv
	.byte		PAN   , c_v+12
	.byte		N36   , Cs1 , v127
	.byte	W36
	.byte		N12   , Dn1 
	.byte	W12
	.byte		N36   , Cn1 
	.byte	W36
	.byte		N12   , Dn1 
	.byte	W12
@ 001   ----------------------------------------
	.byte		N07   , Cs1 
	.byte	W12
	.byte		        Cn1 
	.byte	W12
	.byte		N72   , Bn0 
	.byte	W72
@ 002   ----------------------------------------
	.byte		N07   , Fn1 
	.byte	W12
	.byte		        En1 
	.byte	W12
	.byte		N72   , Ds1 
	.byte	W72
@ 003   ----------------------------------------
	.byte	W96
@ 004   ----------------------------------------
	.byte	W96
@ 005   ----------------------------------------
	.byte	W96
@ 006   ----------------------------------------
	.byte	W96
@ 007   ----------------------------------------
	.byte	W96
@ 008   ----------------------------------------
	.byte	W96
@ 009   ----------------------------------------
	.byte	W96
@ 010   ----------------------------------------
	.byte	W96
@ 011   ----------------------------------------
	.byte	W96
@ 012   ----------------------------------------
	.byte	W96
@ 013   ----------------------------------------
	.byte	W96
@ 014   ----------------------------------------
	.byte	W96
@ 015   ----------------------------------------
mus_rock_tunnel_1_015:
	.byte		N48   , Cn1 , v116
	.byte	W48
	.byte		N36   , Bn0 
	.byte	W36
	.byte		N12   , Cs1 
	.byte	W12
	.byte	PEND
@ 016   ----------------------------------------
mus_rock_tunnel_1_016:
	.byte		N07   , Cn1 , v116
	.byte	W12
	.byte		        Bn0 
	.byte	W12
	.byte		N60   , As0 
	.byte	W66
	.byte		N06   , Cs1 
	.byte	W06
	.byte	PEND
@ 017   ----------------------------------------
mus_rock_tunnel_1_017:
	.byte		N07   , En1 , v116
	.byte	W12
	.byte		        Ds1 
	.byte	W12
	.byte		N72   , Dn1 
	.byte	W72
	.byte	PEND
@ 018   ----------------------------------------
mus_rock_tunnel_1_018:
	.byte		N07   , Cs1 , v116
	.byte	W12
	.byte		        Cn1 
	.byte	W12
	.byte		N72   , Bn0 
	.byte	W72
	.byte	PEND
@ 019   ----------------------------------------
	.byte	W96
@ 020   ----------------------------------------
	.byte	W96
@ 021   ----------------------------------------
	.byte	W96
@ 022   ----------------------------------------
	.byte	W96
@ 023   ----------------------------------------
	.byte	W96
@ 024   ----------------------------------------
	.byte	W96
@ 025   ----------------------------------------
	.byte	W96
@ 026   ----------------------------------------
	.byte	W96
@ 027   ----------------------------------------
	.byte	W96
@ 028   ----------------------------------------
	.byte	W96
@ 029   ----------------------------------------
	.byte	W96
@ 030   ----------------------------------------
	.byte	W96
@ 031   ----------------------------------------
	.byte	W96
@ 032   ----------------------------------------
	.byte	W96
@ 033   ----------------------------------------
	.byte	PATT
	 .word	mus_rock_tunnel_1_015
@ 034   ----------------------------------------
	.byte	PATT
	 .word	mus_rock_tunnel_1_016
@ 035   ----------------------------------------
	.byte	PATT
	 .word	mus_rock_tunnel_1_017
@ 036   ----------------------------------------
	.byte	PATT
	 .word	mus_rock_tunnel_1_018
@ 037   ----------------------------------------
	.byte	FINE

@**************** Track 2 (Midi-Chn.2) ****************@

mus_rock_tunnel_2:
	.byte	KEYSH , mus_rock_tunnel_key+0
@ 000   ----------------------------------------
	.byte		VOICE , 45
	.byte		VOL   , 98*mus_rock_tunnel_mvl/mxv
	.byte		PAN   , c_v+6
	.byte		        c_v+6
	.byte	W24
	.byte		N11   , Cs2 , v127
	.byte		N11   , Cs3 , v104
	.byte	W48
	.byte		N12   , Cs2 , v127
	.byte		N12   , Cs3 , v104
	.byte	W24
@ 001   ----------------------------------------
	.byte	W24
	.byte		        Bn1 , v127
	.byte		N12   , Bn2 , v104
	.byte	W72
@ 002   ----------------------------------------
	.byte	W24
	.byte		        Cn2 , v127
	.byte		N12   , Cn3 , v104
	.byte	W72
@ 003   ----------------------------------------
mus_rock_tunnel_2_003:
	.byte	W24
	.byte		N12   , Cs2 , v127
	.byte		N12   , Cs3 , v104
	.byte	W48
	.byte		        Cs2 , v127
	.byte		N12   , Cs3 , v104
	.byte	W24
	.byte	PEND
@ 004   ----------------------------------------
mus_rock_tunnel_2_004:
	.byte	W24
	.byte		N12   , Cn2 , v127
	.byte		N12   , Cn3 , v104
	.byte	W48
	.byte		        Cs2 , v127
	.byte		N12   , Cs3 , v104
	.byte	W24
	.byte	PEND
@ 005   ----------------------------------------
mus_rock_tunnel_2_005:
	.byte	W24
	.byte		N12   , An1 , v127
	.byte		N12   , An2 , v104
	.byte	W48
	.byte		        Cs2 , v127
	.byte		N12   , Cs3 , v104
	.byte	W24
	.byte	PEND
@ 006   ----------------------------------------
mus_rock_tunnel_2_006:
	.byte		N12   , An1 , v127
	.byte		N12   , An2 , v104
	.byte	W24
	.byte		        An1 , v127
	.byte		N12   , An2 , v104
	.byte	W24
	.byte		        Cs2 , v127
	.byte		N12   , Cs3 , v104
	.byte	W48
	.byte	PEND
@ 007   ----------------------------------------
	.byte	W96
@ 008   ----------------------------------------
	.byte	W96
@ 009   ----------------------------------------
	.byte	W96
@ 010   ----------------------------------------
	.byte	W96
@ 011   ----------------------------------------
mus_rock_tunnel_2_011:
	.byte	W36
	.byte		N06   , Cn4 , v127
	.byte	W06
	.byte		        Fs4 
	.byte	W06
	.byte		        Dn4 
	.byte	W06
	.byte		        As4 
	.byte	W42
	.byte	PEND
@ 012   ----------------------------------------
mus_rock_tunnel_2_012:
	.byte		N08   , An4 , v127
	.byte	W08
	.byte		        Fn4 
	.byte	W08
	.byte		        Dn4 
	.byte	W08
	.byte		N06   , Bn3 
	.byte	W06
	.byte		        Gs3 
	.byte	W06
	.byte		N04   , Fn3 
	.byte	W04
	.byte		        Dn3 
	.byte	W04
	.byte		        Bn2 
	.byte	W52
	.byte	PEND
@ 013   ----------------------------------------
mus_rock_tunnel_2_013:
	.byte	W24
	.byte		N12   , Gs3 , v127
	.byte		N12   , Bn3 
	.byte	W48
	.byte		        Dn3 
	.byte		N12   , Gn3 
	.byte		N12   , Bn3 
	.byte	W12
	.byte		        Fn3 
	.byte		N12   , Bn3 
	.byte		N12   , Dn4 
	.byte	W12
	.byte	PEND
@ 014   ----------------------------------------
	.byte	W96
@ 015   ----------------------------------------
	.byte	W96
@ 016   ----------------------------------------
	.byte	W96
@ 017   ----------------------------------------
	.byte	W96
@ 018   ----------------------------------------
	.byte	W96
@ 019   ----------------------------------------
	.byte	PATT
	 .word	mus_rock_tunnel_2_003
@ 020   ----------------------------------------
	.byte	PATT
	 .word	mus_rock_tunnel_2_003
@ 021   ----------------------------------------
	.byte	PATT
	 .word	mus_rock_tunnel_2_003
@ 022   ----------------------------------------
	.byte	PATT
	 .word	mus_rock_tunnel_2_004
@ 023   ----------------------------------------
	.byte	PATT
	 .word	mus_rock_tunnel_2_005
@ 024   ----------------------------------------
	.byte	PATT
	 .word	mus_rock_tunnel_2_006
@ 025   ----------------------------------------
	.byte	W96
@ 026   ----------------------------------------
	.byte	W96
@ 027   ----------------------------------------
	.byte	W96
@ 028   ----------------------------------------
	.byte	W96
@ 029   ----------------------------------------
	.byte	PATT
	 .word	mus_rock_tunnel_2_011
@ 030   ----------------------------------------
	.byte	PATT
	 .word	mus_rock_tunnel_2_012
@ 031   ----------------------------------------
	.byte	PATT
	 .word	mus_rock_tunnel_2_013
@ 032   ----------------------------------------
	.byte	W96
@ 033   ----------------------------------------
	.byte	W96
@ 034   ----------------------------------------
	.byte	W96
@ 035   ----------------------------------------
	.byte	W96
@ 036   ----------------------------------------
	.byte	W96
@ 037   ----------------------------------------
	.byte	PATT
	 .word	mus_rock_tunnel_2_003
@ 038   ----------------------------------------
	.byte	W24
	.byte		N12   , Cs2 , v127
	.byte		N12   , Cs3 , v104
	.byte	W48
	.byte		        Cs2 , v127
	.byte		N12   , Cs3 , v104
	.byte	W12
	.byte	FINE

@**************** Track 3 (Midi-Chn.4) ****************@

mus_rock_tunnel_3:
	.byte	KEYSH , mus_rock_tunnel_key+0
@ 000   ----------------------------------------
	.byte		VOICE , 46
	.byte		VOL   , 91*mus_rock_tunnel_mvl/mxv
	.byte		PAN   , c_v+0
	.byte	W96
@ 001   ----------------------------------------
	.byte	W24
	.byte		N04   , Dn4 , v127
	.byte	W04
	.byte		        Fn4 
	.byte	W04
	.byte		        Gs4 
	.byte	W04
	.byte		        Bn4 
	.byte	W04
	.byte		        Gs4 
	.byte	W04
	.byte		        Fn4 
	.byte	W04
	.byte		N24   , Dn4 
	.byte	W48
@ 002   ----------------------------------------
	.byte	W24
	.byte		N04   , Cn4 
	.byte	W04
	.byte		        Ds4 
	.byte	W04
	.byte		        Fs4 
	.byte	W04
	.byte		        An4 
	.byte	W04
	.byte		        Fs4 
	.byte	W04
	.byte		        Ds4 
	.byte	W04
	.byte		N24   , Cn4 
	.byte	W48
@ 003   ----------------------------------------
	.byte	W96
@ 004   ----------------------------------------
	.byte	W96
@ 005   ----------------------------------------
	.byte	W96
@ 006   ----------------------------------------
	.byte	W96
@ 007   ----------------------------------------
mus_rock_tunnel_3_007:
	.byte		N12   , Cs4 , v104
	.byte	W12
	.byte		        Gs4 
	.byte	W12
	.byte		N24   , Cs5 
	.byte	W24
	.byte		N12   , Cs4 
	.byte	W12
	.byte		        Gs4 
	.byte	W12
	.byte		N24   , Cs5 
	.byte	W24
	.byte	PEND
@ 008   ----------------------------------------
mus_rock_tunnel_3_008:
	.byte		N12   , Gs3 , v104
	.byte	W12
	.byte		        Cs4 
	.byte	W12
	.byte		        Gs4 
	.byte	W12
	.byte		        Cs5 
	.byte	W12
	.byte		        En5 
	.byte	W12
	.byte		        Cs5 
	.byte	W12
	.byte		N24   , Gs4 
	.byte	W24
	.byte	PEND
@ 009   ----------------------------------------
mus_rock_tunnel_3_009:
	.byte		N12   , Cs4 , v104
	.byte	W12
	.byte		        An4 
	.byte	W12
	.byte		        Cs5 
	.byte	W12
	.byte		        An4 
	.byte	W12
	.byte		        Cs4 
	.byte	W12
	.byte		        Gs4 
	.byte	W12
	.byte		N24   , Cs5 
	.byte	W24
	.byte	PEND
@ 010   ----------------------------------------
mus_rock_tunnel_3_010:
	.byte		N12   , Cs4 , v104
	.byte	W12
	.byte		        An4 
	.byte	W12
	.byte		        Cs5 
	.byte	W12
	.byte		        En5 
	.byte	W12
	.byte		        Cs5 
	.byte	W12
	.byte		        Gs4 
	.byte	W12
	.byte		N24   , Cs5 
	.byte	W24
	.byte	PEND
@ 011   ----------------------------------------
	.byte	W96
@ 012   ----------------------------------------
	.byte	W96
@ 013   ----------------------------------------
	.byte	W96
@ 014   ----------------------------------------
	.byte	W96
@ 015   ----------------------------------------
	.byte	W96
@ 016   ----------------------------------------
	.byte	W96
@ 017   ----------------------------------------
	.byte	W96
@ 018   ----------------------------------------
	.byte	W96
@ 019   ----------------------------------------
	.byte	W96
@ 020   ----------------------------------------
	.byte	W96
@ 021   ----------------------------------------
	.byte	W96
@ 022   ----------------------------------------
	.byte	W96
@ 023   ----------------------------------------
	.byte	W96
@ 024   ----------------------------------------
	.byte	W96
@ 025   ----------------------------------------
	.byte	PATT
	 .word	mus_rock_tunnel_3_007
@ 026   ----------------------------------------
	.byte	PATT
	 .word	mus_rock_tunnel_3_008
@ 027   ----------------------------------------
	.byte	PATT
	 .word	mus_rock_tunnel_3_009
@ 028   ----------------------------------------
	.byte	PATT
	 .word	mus_rock_tunnel_3_010
@ 029   ----------------------------------------
	.byte	W96
@ 030   ----------------------------------------
	.byte	W96
@ 031   ----------------------------------------
	.byte	W96
@ 032   ----------------------------------------
	.byte	W96
@ 033   ----------------------------------------
	.byte	W96
@ 034   ----------------------------------------
	.byte	W96
@ 035   ----------------------------------------
	.byte	W96
@ 036   ----------------------------------------
	.byte	W96
@ 037   ----------------------------------------
	.byte	FINE

@**************** Track 4 (Midi-Chn.3) ****************@

mus_rock_tunnel_4:
	.byte	KEYSH , mus_rock_tunnel_key+0
@ 000   ----------------------------------------
	.byte		VOICE , 16
	.byte		VOL   , 106*mus_rock_tunnel_mvl/mxv
	.byte		PAN   , c_v+12
	.byte	W96
@ 001   ----------------------------------------
	.byte	W96
@ 002   ----------------------------------------
	.byte	W96
@ 003   ----------------------------------------
	.byte	W24
	.byte		N72   , Cs3 , v127
	.byte	W72
@ 004   ----------------------------------------
	.byte		N92   
	.byte	W96
@ 005   ----------------------------------------
mus_rock_tunnel_4_005:
	.byte		N48   , Cs3 , v127
	.byte	W48
	.byte		N44   
	.byte	W48
	.byte	PEND
@ 006   ----------------------------------------
	.byte	PATT
	 .word	mus_rock_tunnel_4_005
@ 007   ----------------------------------------
	.byte	W96
@ 008   ----------------------------------------
	.byte	W96
@ 009   ----------------------------------------
	.byte	W96
@ 010   ----------------------------------------
	.byte	W96
@ 011   ----------------------------------------
mus_rock_tunnel_4_011:
	.byte		N48   , Ds3 , v127
	.byte	W48
	.byte		        Dn3 
	.byte	W48
	.byte	PEND
@ 012   ----------------------------------------
mus_rock_tunnel_4_012:
	.byte		N48   , Fn3 , v127
	.byte	W48
	.byte		        En3 
	.byte	W48
	.byte	PEND
@ 013   ----------------------------------------
mus_rock_tunnel_4_013:
	.byte		N48   , Gs3 , v127
	.byte	W48
	.byte		        Gn3 
	.byte	W48
	.byte	PEND
@ 014   ----------------------------------------
mus_rock_tunnel_4_014:
	.byte		N48   , Cn3 , v127
	.byte	W48
	.byte		        Bn2 
	.byte	W48
	.byte	PEND
@ 015   ----------------------------------------
	.byte	PATT
	 .word	mus_rock_tunnel_4_011
@ 016   ----------------------------------------
	.byte	PATT
	 .word	mus_rock_tunnel_4_012
@ 017   ----------------------------------------
	.byte	PATT
	 .word	mus_rock_tunnel_4_013
@ 018   ----------------------------------------
	.byte	PATT
	 .word	mus_rock_tunnel_4_014
@ 019   ----------------------------------------
	.byte		N96   , Cs3 , v127
	.byte	W96
@ 020   ----------------------------------------
	.byte		N92   
	.byte	W96
@ 021   ----------------------------------------
	.byte		N96   
	.byte	W96
@ 022   ----------------------------------------
	.byte		N92   
	.byte	W96
@ 023   ----------------------------------------
	.byte	PATT
	 .word	mus_rock_tunnel_4_005
@ 024   ----------------------------------------
	.byte	PATT
	 .word	mus_rock_tunnel_4_005
@ 025   ----------------------------------------
	.byte	W96
@ 026   ----------------------------------------
	.byte	W96
@ 027   ----------------------------------------
	.byte	W96
@ 028   ----------------------------------------
	.byte	W96
@ 029   ----------------------------------------
	.byte	PATT
	 .word	mus_rock_tunnel_4_011
@ 030   ----------------------------------------
	.byte	PATT
	 .word	mus_rock_tunnel_4_012
@ 031   ----------------------------------------
	.byte	PATT
	 .word	mus_rock_tunnel_4_013
@ 032   ----------------------------------------
	.byte	PATT
	 .word	mus_rock_tunnel_4_014
@ 033   ----------------------------------------
	.byte	PATT
	 .word	mus_rock_tunnel_4_011
@ 034   ----------------------------------------
	.byte	PATT
	 .word	mus_rock_tunnel_4_012
@ 035   ----------------------------------------
	.byte	PATT
	 .word	mus_rock_tunnel_4_013
@ 036   ----------------------------------------
	.byte	PATT
	 .word	mus_rock_tunnel_4_014
@ 037   ----------------------------------------
	.byte		N96   , Cs3 , v127
	.byte	W96
@ 038   ----------------------------------------
	.byte		N92   
	.byte	W92
	.byte	W02
	.byte	FINE

@**************** Track 5 (Midi-Chn.5) ****************@

mus_rock_tunnel_5:
	.byte	KEYSH , mus_rock_tunnel_key+0
@ 000   ----------------------------------------
	.byte		VOICE , 71
	.byte		VOL   , 106*mus_rock_tunnel_mvl/mxv
	.byte		PAN   , c_v-32
	.byte	W96
@ 001   ----------------------------------------
	.byte	W96
@ 002   ----------------------------------------
	.byte	W96
@ 003   ----------------------------------------
mus_rock_tunnel_5_003:
	.byte		N36   , Gs2 , v127
	.byte	W36
	.byte		N12   , An2 
	.byte	W12
	.byte		N36   , Ds2 
	.byte	W36
	.byte		N12   , En2 
	.byte	W12
	.byte	PEND
@ 004   ----------------------------------------
mus_rock_tunnel_5_004:
	.byte		N36   , Cn2 , v127
	.byte	W36
	.byte		N12   , Cs2 
	.byte	W12
	.byte		N42   , Gs1 
	.byte	W48
	.byte	PEND
@ 005   ----------------------------------------
mus_rock_tunnel_5_005:
	.byte		N36   , An1 , v127
	.byte	W36
	.byte		N12   , En2 
	.byte	W12
	.byte		N42   , Cs2 
	.byte	W48
	.byte	PEND
@ 006   ----------------------------------------
mus_rock_tunnel_5_006:
	.byte		N09   , An1 , v127
	.byte	W12
	.byte		N24   
	.byte	W24
	.byte		N12   , En2 
	.byte	W12
	.byte		N42   , Cs2 
	.byte	W48
	.byte	PEND
@ 007   ----------------------------------------
	.byte	PATT
	 .word	mus_rock_tunnel_5_003
@ 008   ----------------------------------------
	.byte	PATT
	 .word	mus_rock_tunnel_5_004
@ 009   ----------------------------------------
	.byte	PATT
	 .word	mus_rock_tunnel_5_005
@ 010   ----------------------------------------
	.byte	PATT
	 .word	mus_rock_tunnel_5_006
@ 011   ----------------------------------------
	.byte	W96
@ 012   ----------------------------------------
	.byte	W96
@ 013   ----------------------------------------
	.byte	W96
@ 014   ----------------------------------------
	.byte	W96
@ 015   ----------------------------------------
	.byte	W96
@ 016   ----------------------------------------
	.byte	W96
@ 017   ----------------------------------------
	.byte	W96
@ 018   ----------------------------------------
	.byte	W96
@ 019   ----------------------------------------
	.byte	W96
@ 020   ----------------------------------------
	.byte	W96
@ 021   ----------------------------------------
	.byte	PATT
	 .word	mus_rock_tunnel_5_003
@ 022   ----------------------------------------
	.byte	PATT
	 .word	mus_rock_tunnel_5_004
@ 023   ----------------------------------------
	.byte	PATT
	 .word	mus_rock_tunnel_5_005
@ 024   ----------------------------------------
	.byte	PATT
	 .word	mus_rock_tunnel_5_006
@ 025   ----------------------------------------
	.byte	PATT
	 .word	mus_rock_tunnel_5_003
@ 026   ----------------------------------------
	.byte	PATT
	 .word	mus_rock_tunnel_5_004
@ 027   ----------------------------------------
	.byte	PATT
	 .word	mus_rock_tunnel_5_005
@ 028   ----------------------------------------
	.byte	PATT
	 .word	mus_rock_tunnel_5_006
@ 029   ----------------------------------------
	.byte	W96
@ 030   ----------------------------------------
	.byte	W96
@ 031   ----------------------------------------
	.byte	W96
@ 032   ----------------------------------------
	.byte	W96
@ 033   ----------------------------------------
	.byte	W96
@ 034   ----------------------------------------
	.byte	W96
@ 035   ----------------------------------------
	.byte	W96
@ 036   ----------------------------------------
	.byte	W96
@ 037   ----------------------------------------
	.byte	FINE

@**************** Track 6 (Midi-Chn.6) ****************@

mus_rock_tunnel_6:
	.byte	KEYSH , mus_rock_tunnel_key+0
@ 000   ----------------------------------------
	.byte		VOICE , 8
	.byte		VOL   , 84*mus_rock_tunnel_mvl/mxv
	.byte		PAN   , c_v+31
	.byte	W96
@ 001   ----------------------------------------
	.byte	W96
@ 002   ----------------------------------------
	.byte	W96
@ 003   ----------------------------------------
mus_rock_tunnel_6_003:
	.byte	W24
	.byte		N12   , Gs5 , v064
	.byte		N12   , Cs6 , v127
	.byte	W12
	.byte		        Cs5 , v064
	.byte		N12   , En5 , v127
	.byte	W36
	.byte		        Gs5 , v064
	.byte		N12   , Cs6 , v127
	.byte	W24
	.byte	PEND
@ 004   ----------------------------------------
mus_rock_tunnel_6_004:
	.byte		N12   , En5 , v064
	.byte		N12   , Gn5 , v127
	.byte	W12
	.byte		        Gn5 , v064
	.byte		N12   , Cs6 , v127
	.byte	W12
	.byte		        Cs6 , v064
	.byte		N12   , En6 , v127
	.byte	W12
	.byte		        Gs5 , v064
	.byte		N12   , Cs6 , v127
	.byte	W24
	.byte		        Cs5 , v064
	.byte		N12   , En5 , v127
	.byte	W12
	.byte		        Gs5 , v064
	.byte		N12   , Cs6 , v127
	.byte	W24
	.byte	PEND
@ 005   ----------------------------------------
mus_rock_tunnel_6_005:
	.byte	W12
	.byte		N12   , Cs5 , v064
	.byte		N12   , En5 , v127
	.byte	W12
	.byte		        En5 , v064
	.byte		N12   , An5 , v127
	.byte	W48
	.byte		        Gs5 , v064
	.byte		N12   , Cs6 , v127
	.byte	W24
	.byte	PEND
@ 006   ----------------------------------------
	.byte	PATT
	 .word	mus_rock_tunnel_6_005
@ 007   ----------------------------------------
	.byte	PATT
	 .word	mus_rock_tunnel_6_003
@ 008   ----------------------------------------
	.byte	PATT
	 .word	mus_rock_tunnel_6_004
@ 009   ----------------------------------------
	.byte	PATT
	 .word	mus_rock_tunnel_6_005
@ 010   ----------------------------------------
	.byte	PATT
	 .word	mus_rock_tunnel_6_005
@ 011   ----------------------------------------
	.byte	W96
@ 012   ----------------------------------------
	.byte	W96
@ 013   ----------------------------------------
	.byte	W96
@ 014   ----------------------------------------
	.byte	W96
@ 015   ----------------------------------------
	.byte	W96
@ 016   ----------------------------------------
	.byte	W96
@ 017   ----------------------------------------
	.byte	W96
@ 018   ----------------------------------------
	.byte	W96
@ 019   ----------------------------------------
	.byte	PATT
	 .word	mus_rock_tunnel_6_003
@ 020   ----------------------------------------
	.byte		N12   , En5 , v064
	.byte		N12   , Gs5 , v127
	.byte	W12
	.byte		        Gs5 , v064
	.byte		N12   , Cs6 , v127
	.byte	W12
	.byte		        Cs6 , v064
	.byte		N12   , En6 , v127
	.byte	W12
	.byte		        Gs5 , v064
	.byte		N12   , Cs6 , v127
	.byte	W24
	.byte		        Cs5 , v064
	.byte		N12   , En5 , v127
	.byte	W12
	.byte		        Gs5 , v064
	.byte		N12   , Cs6 , v127
	.byte	W24
@ 021   ----------------------------------------
	.byte	PATT
	 .word	mus_rock_tunnel_6_003
@ 022   ----------------------------------------
	.byte	PATT
	 .word	mus_rock_tunnel_6_004
@ 023   ----------------------------------------
	.byte	PATT
	 .word	mus_rock_tunnel_6_005
@ 024   ----------------------------------------
	.byte	PATT
	 .word	mus_rock_tunnel_6_005
@ 025   ----------------------------------------
	.byte	PATT
	 .word	mus_rock_tunnel_6_003
@ 026   ----------------------------------------
	.byte	PATT
	 .word	mus_rock_tunnel_6_004
@ 027   ----------------------------------------
	.byte	PATT
	 .word	mus_rock_tunnel_6_005
@ 028   ----------------------------------------
	.byte	PATT
	 .word	mus_rock_tunnel_6_005
@ 029   ----------------------------------------
	.byte	W96
@ 030   ----------------------------------------
	.byte	W96
@ 031   ----------------------------------------
	.byte	W96
@ 032   ----------------------------------------
	.byte	W96
@ 033   ----------------------------------------
	.byte	W96
@ 034   ----------------------------------------
	.byte	W96
@ 035   ----------------------------------------
	.byte	W96
@ 036   ----------------------------------------
	.byte	W96
@ 037   ----------------------------------------
	.byte	PATT
	 .word	mus_rock_tunnel_6_003
@ 038   ----------------------------------------
	.byte		N12   , En5 , v064
	.byte		N12   , Gs5 , v127
	.byte	W12
	.byte		        Gs5 , v064
	.byte		N12   , Cs6 , v127
	.byte	W12
	.byte		        Cs6 , v064
	.byte		N12   , En6 , v127
	.byte	W12
	.byte		        Gs5 , v064
	.byte		N12   , Cs6 , v127
	.byte	W24
	.byte		        Cs5 , v064
	.byte		N12   , En5 , v127
	.byte	W12
	.byte		        Gs5 , v064
	.byte		N12   , Cs6 , v127
	.byte	W12
	.byte	FINE

@**************** Track 7 (Midi-Chn.7) ****************@

mus_rock_tunnel_7:
	.byte	KEYSH , mus_rock_tunnel_key+0
@ 000   ----------------------------------------
	.byte		VOICE , 13
	.byte		VOL   , 78*mus_rock_tunnel_mvl/mxv
	.byte		PAN   , c_v-38
	.byte	W96
@ 001   ----------------------------------------
	.byte	W96
@ 002   ----------------------------------------
	.byte	W96
@ 003   ----------------------------------------
mus_rock_tunnel_7_003:
	.byte	W24
	.byte		N12   , Cs3 , v127
	.byte	W12
	.byte		        Gs2 
	.byte	W24
	.byte		N12   
	.byte	W12
	.byte		        Cs3 
	.byte	W12
	.byte		        Gs2 
	.byte	W12
	.byte	PEND
@ 004   ----------------------------------------
mus_rock_tunnel_7_004:
	.byte	W24
	.byte		N12   , Cs3 , v127
	.byte	W12
	.byte		        Gs2 
	.byte	W24
	.byte		N12   
	.byte	W12
	.byte		        En3 
	.byte	W24
	.byte	PEND
@ 005   ----------------------------------------
mus_rock_tunnel_7_005:
	.byte	W24
	.byte		N12   , Cs3 , v127
	.byte	W12
	.byte		        An2 
	.byte	W24
	.byte		        Gs2 
	.byte	W12
	.byte		        En3 
	.byte	W24
	.byte	PEND
@ 006   ----------------------------------------
	.byte	PATT
	 .word	mus_rock_tunnel_7_005
@ 007   ----------------------------------------
	.byte	PATT
	 .word	mus_rock_tunnel_7_003
@ 008   ----------------------------------------
	.byte	PATT
	 .word	mus_rock_tunnel_7_004
@ 009   ----------------------------------------
	.byte	PATT
	 .word	mus_rock_tunnel_7_005
@ 010   ----------------------------------------
	.byte	PATT
	 .word	mus_rock_tunnel_7_005
@ 011   ----------------------------------------
	.byte	W96
@ 012   ----------------------------------------
	.byte	W96
@ 013   ----------------------------------------
	.byte	W96
@ 014   ----------------------------------------
mus_rock_tunnel_7_014:
	.byte		N02   , Cn3 , v020
	.byte	W02
	.byte		        Gn3 
	.byte	W02
	.byte		        Cn3 , v024
	.byte	W02
	.byte		        Gn3 , v028
	.byte	W02
	.byte		        Cn3 , v032
	.byte	W02
	.byte		        Gn3 , v036
	.byte	W02
	.byte		        Cn3 
	.byte	W02
	.byte		        Gn3 , v040
	.byte	W02
	.byte		        Cn3 , v044
	.byte	W02
	.byte		        Gn3 , v048
	.byte	W02
	.byte		        Cn3 , v052
	.byte	W02
	.byte		        Gn3 
	.byte	W02
	.byte		        Cn3 , v056
	.byte	W02
	.byte		        Gn3 , v060
	.byte	W02
	.byte		        Cn3 , v064
	.byte	W02
	.byte		        Gn3 , v068
	.byte	W02
	.byte		        Cn3 
	.byte	W02
	.byte		        Gn3 , v072
	.byte	W02
	.byte		        Cn3 , v076
	.byte	W02
	.byte		        Gn3 , v080
	.byte	W02
	.byte		        Cn3 
	.byte	W02
	.byte		        Gn3 , v084
	.byte	W02
	.byte		        Cn3 , v088
	.byte	W02
	.byte		        Gn3 , v092
	.byte	W02
	.byte		        Cn3 , v088
	.byte	W02
	.byte		        Gn3 , v084
	.byte	W02
	.byte		        Cn3 , v080
	.byte	W02
	.byte		        Gn3 , v076
	.byte	W02
	.byte		        Cn3 
	.byte	W02
	.byte		        Gn3 , v072
	.byte	W02
	.byte		        Cn3 , v068
	.byte	W02
	.byte		        Gn3 , v064
	.byte	W02
	.byte		        Cn3 , v060
	.byte	W02
	.byte		        Gn3 
	.byte	W02
	.byte		        Cn3 , v056
	.byte	W02
	.byte		        Gn3 , v052
	.byte	W02
	.byte		        Cn3 , v048
	.byte	W02
	.byte		        Gn3 
	.byte	W02
	.byte		        Cn3 , v044
	.byte	W02
	.byte		        Gn3 , v040
	.byte	W02
	.byte		        Cn3 , v036
	.byte	W02
	.byte		        Gn3 , v032
	.byte	W02
	.byte		        Cn3 
	.byte	W02
	.byte		        Gn3 , v028
	.byte	W02
	.byte		        Cn3 , v024
	.byte	W02
	.byte		        Gn3 , v020
	.byte	W02
	.byte		        Cn3 , v016
	.byte	W02
	.byte		        Gn3 
	.byte	W02
	.byte	PEND
@ 015   ----------------------------------------
	.byte	W96
@ 016   ----------------------------------------
	.byte	W96
@ 017   ----------------------------------------
	.byte	W96
@ 018   ----------------------------------------
	.byte	PATT
	 .word	mus_rock_tunnel_7_014
@ 019   ----------------------------------------
	.byte	PATT
	 .word	mus_rock_tunnel_7_003
@ 020   ----------------------------------------
	.byte	PATT
	 .word	mus_rock_tunnel_7_004
@ 021   ----------------------------------------
	.byte	PATT
	 .word	mus_rock_tunnel_7_003
@ 022   ----------------------------------------
	.byte	PATT
	 .word	mus_rock_tunnel_7_004
@ 023   ----------------------------------------
	.byte	PATT
	 .word	mus_rock_tunnel_7_005
@ 024   ----------------------------------------
	.byte	PATT
	 .word	mus_rock_tunnel_7_005
@ 025   ----------------------------------------
	.byte	PATT
	 .word	mus_rock_tunnel_7_003
@ 026   ----------------------------------------
	.byte	PATT
	 .word	mus_rock_tunnel_7_004
@ 027   ----------------------------------------
	.byte	PATT
	 .word	mus_rock_tunnel_7_005
@ 028   ----------------------------------------
	.byte	PATT
	 .word	mus_rock_tunnel_7_005
@ 029   ----------------------------------------
	.byte	W96
@ 030   ----------------------------------------
	.byte	W96
@ 031   ----------------------------------------
	.byte	W96
@ 032   ----------------------------------------
	.byte	PATT
	 .word	mus_rock_tunnel_7_014
@ 033   ----------------------------------------
	.byte	W96
@ 034   ----------------------------------------
	.byte	W96
@ 035   ----------------------------------------
	.byte	W96
@ 036   ----------------------------------------
	.byte	PATT
	 .word	mus_rock_tunnel_7_014
@ 037   ----------------------------------------
	.byte	PATT
	 .word	mus_rock_tunnel_7_003
@ 038   ----------------------------------------
	.byte	W24
	.byte		N12   , Cs3 , v127
	.byte	W12
	.byte		        Gs2 
	.byte	W24
	.byte		N12   
	.byte	W12
	.byte		        En3 
	.byte	W12
	.byte	FINE

@**************** Track 8 (Midi-Chn.8) ****************@

mus_rock_tunnel_8:
	.byte	KEYSH , mus_rock_tunnel_key+0
@ 000   ----------------------------------------
	.byte		VOICE , 99
	.byte		VOL   , 84*mus_rock_tunnel_mvl/mxv
	.byte		PAN   , c_v+6
	.byte	W96
@ 001   ----------------------------------------
	.byte	W96
@ 002   ----------------------------------------
	.byte	W96
@ 003   ----------------------------------------
	.byte	W96
@ 004   ----------------------------------------
	.byte	W96
@ 005   ----------------------------------------
mus_rock_tunnel_8_005:
	.byte	W66
	.byte		N02   , Gs5 , v127
	.byte	W02
	.byte		        An5 
	.byte	W02
	.byte		        Bn5 
	.byte	W02
	.byte		N09   , Cs6 
	.byte	W24
	.byte	PEND
@ 006   ----------------------------------------
	.byte	PATT
	 .word	mus_rock_tunnel_8_005
@ 007   ----------------------------------------
	.byte	W96
@ 008   ----------------------------------------
	.byte	W96
@ 009   ----------------------------------------
	.byte	PATT
	 .word	mus_rock_tunnel_8_005
@ 010   ----------------------------------------
	.byte	PATT
	 .word	mus_rock_tunnel_8_005
@ 011   ----------------------------------------
	.byte	W96
@ 012   ----------------------------------------
	.byte	W96
@ 013   ----------------------------------------
	.byte	W96
@ 014   ----------------------------------------
	.byte	W96
@ 015   ----------------------------------------
	.byte	W96
@ 016   ----------------------------------------
	.byte	W96
@ 017   ----------------------------------------
	.byte	W96
@ 018   ----------------------------------------
	.byte	W96
@ 019   ----------------------------------------
	.byte	W96
@ 020   ----------------------------------------
	.byte	W96
@ 021   ----------------------------------------
	.byte	W96
@ 022   ----------------------------------------
	.byte	W96
@ 023   ----------------------------------------
	.byte	PATT
	 .word	mus_rock_tunnel_8_005
@ 024   ----------------------------------------
	.byte	PATT
	 .word	mus_rock_tunnel_8_005
@ 025   ----------------------------------------
	.byte	W96
@ 026   ----------------------------------------
	.byte	W96
@ 027   ----------------------------------------
	.byte	PATT
	 .word	mus_rock_tunnel_8_005
@ 028   ----------------------------------------
	.byte	PATT
	 .word	mus_rock_tunnel_8_005
@ 029   ----------------------------------------
	.byte	W96
@ 030   ----------------------------------------
	.byte	W96
@ 031   ----------------------------------------
	.byte	W96
@ 032   ----------------------------------------
	.byte	W96
@ 033   ----------------------------------------
	.byte	W96
@ 034   ----------------------------------------
	.byte	W96
@ 035   ----------------------------------------
	.byte	W96
@ 036   ----------------------------------------
	.byte	W96
@ 037   ----------------------------------------
	.byte	FINE

@**************** Track 9 (Midi-Chn.9) ****************@

mus_rock_tunnel_9:
	.byte	KEYSH , mus_rock_tunnel_key+0
@ 000   ----------------------------------------
	.byte		VOICE , 25
	.byte		VOL   , 108*mus_rock_tunnel_mvl/mxv
	.byte		PAN   , c_v+12
	.byte	W96
@ 001   ----------------------------------------
	.byte	W96
@ 002   ----------------------------------------
	.byte	W96
@ 003   ----------------------------------------
	.byte	W96
@ 004   ----------------------------------------
	.byte	W96
@ 005   ----------------------------------------
	.byte	W96
@ 006   ----------------------------------------
	.byte	W96
@ 007   ----------------------------------------
mus_rock_tunnel_9_007:
	.byte		N12   , Cs1 , v127
	.byte	W24
	.byte		N06   
	.byte	W06
	.byte		        En1 
	.byte	W06
	.byte		        Cs1 
	.byte	W06
	.byte		        En1 
	.byte	W06
	.byte		N12   , Gs1 
	.byte	W24
	.byte		N06   , Cs1 
	.byte	W06
	.byte		        En1 
	.byte	W06
	.byte		        Cs1 
	.byte	W06
	.byte		        En1 
	.byte	W06
	.byte	PEND
@ 008   ----------------------------------------
mus_rock_tunnel_9_008:
	.byte		N12   , Cn1 , v127
	.byte	W24
	.byte		N06   , Cs1 
	.byte	W06
	.byte		        En1 
	.byte	W06
	.byte		        Cs1 
	.byte	W06
	.byte		        En1 
	.byte	W06
	.byte		N12   , Gs1 
	.byte	W12
	.byte		        En1 
	.byte	W12
	.byte		N06   , Cn1 
	.byte	W06
	.byte		        Cs1 
	.byte	W06
	.byte		N12   , En1 
	.byte	W12
	.byte	PEND
@ 009   ----------------------------------------
mus_rock_tunnel_9_009:
	.byte	W24
	.byte		N06   , En1 , v127
	.byte	W06
	.byte		        An1 
	.byte	W06
	.byte		        En1 
	.byte	W06
	.byte		        An1 
	.byte	W06
	.byte		N12   , Gs1 
	.byte	W24
	.byte		        En1 
	.byte	W12
	.byte		        Cs1 
	.byte	W12
	.byte	PEND
@ 010   ----------------------------------------
mus_rock_tunnel_9_010:
	.byte	W12
	.byte		N06   , En1 , v127
	.byte	W06
	.byte		        An1 
	.byte	W06
	.byte		N12   , En1 
	.byte	W12
	.byte		        An1 
	.byte	W12
	.byte		        Gs1 
	.byte	W12
	.byte		        En1 
	.byte	W12
	.byte		        Cs1 
	.byte	W24
	.byte	PEND
@ 011   ----------------------------------------
	.byte	W96
@ 012   ----------------------------------------
	.byte	W96
@ 013   ----------------------------------------
	.byte	W96
@ 014   ----------------------------------------
	.byte	W96
@ 015   ----------------------------------------
	.byte	W96
@ 016   ----------------------------------------
	.byte	W96
@ 017   ----------------------------------------
	.byte	W96
@ 018   ----------------------------------------
	.byte	W96
@ 019   ----------------------------------------
	.byte	W96
@ 020   ----------------------------------------
	.byte	W96
@ 021   ----------------------------------------
	.byte	W96
@ 022   ----------------------------------------
	.byte	W96
@ 023   ----------------------------------------
	.byte	W96
@ 024   ----------------------------------------
	.byte	W96
@ 025   ----------------------------------------
	.byte	PATT
	 .word	mus_rock_tunnel_9_007
@ 026   ----------------------------------------
	.byte	PATT
	 .word	mus_rock_tunnel_9_008
@ 027   ----------------------------------------
	.byte	PATT
	 .word	mus_rock_tunnel_9_009
@ 028   ----------------------------------------
	.byte	PATT
	 .word	mus_rock_tunnel_9_010
@ 029   ----------------------------------------
	.byte	W96
@ 030   ----------------------------------------
	.byte	W96
@ 031   ----------------------------------------
	.byte	W96
@ 032   ----------------------------------------
	.byte	W96
@ 033   ----------------------------------------
	.byte	W96
@ 034   ----------------------------------------
	.byte	W96
@ 035   ----------------------------------------
	.byte	W96
@ 036   ----------------------------------------
	.byte	W96
@ 037   ----------------------------------------
	.byte	FINE

@**************** Track 10 (Midi-Chn.11) ****************@

mus_rock_tunnel_10:
	.byte	KEYSH , mus_rock_tunnel_key+0
@ 000   ----------------------------------------
	.byte		VOICE , 47
	.byte		VOL   , 127*mus_rock_tunnel_mvl/mxv
	.byte	W96
@ 001   ----------------------------------------
	.byte	W96
@ 002   ----------------------------------------
	.byte	W96
@ 003   ----------------------------------------
	.byte	W96
@ 004   ----------------------------------------
	.byte	W96
@ 005   ----------------------------------------
	.byte	W96
@ 006   ----------------------------------------
mus_rock_tunnel_10_006:
	.byte	W90
	.byte		N02   , Cs2 , v092
	.byte	W02
	.byte		        Cs2 , v104
	.byte	W02
	.byte		        Cs2 , v116
	.byte	W02
	.byte	PEND
@ 007   ----------------------------------------
	.byte		N24   , Cs2 , v127
	.byte	W96
@ 008   ----------------------------------------
	.byte	W96
@ 009   ----------------------------------------
	.byte	W96
@ 010   ----------------------------------------
	.byte	W96
@ 011   ----------------------------------------
mus_rock_tunnel_10_011:
	.byte	W24
	.byte		N12   , Ds1 , v127
	.byte	W12
	.byte		N12   
	.byte	W36
	.byte		N24   , Dn1 
	.byte	W24
	.byte	PEND
@ 012   ----------------------------------------
mus_rock_tunnel_10_012:
	.byte	W24
	.byte		N12   , Fn1 , v127
	.byte	W12
	.byte		N12   
	.byte	W36
	.byte		N24   , En1 
	.byte	W24
	.byte	PEND
@ 013   ----------------------------------------
mus_rock_tunnel_10_013:
	.byte	W24
	.byte		N12   , En1 , v127
	.byte	W12
	.byte		N12   
	.byte	W36
	.byte		N24   
	.byte	W24
	.byte	PEND
@ 014   ----------------------------------------
	.byte	PATT
	 .word	mus_rock_tunnel_10_011
@ 015   ----------------------------------------
	.byte	PATT
	 .word	mus_rock_tunnel_10_011
@ 016   ----------------------------------------
	.byte	PATT
	 .word	mus_rock_tunnel_10_012
@ 017   ----------------------------------------
	.byte	PATT
	 .word	mus_rock_tunnel_10_013
@ 018   ----------------------------------------
	.byte	PATT
	 .word	mus_rock_tunnel_10_011
@ 019   ----------------------------------------
	.byte	W96
@ 020   ----------------------------------------
	.byte	W96
@ 021   ----------------------------------------
	.byte	W96
@ 022   ----------------------------------------
	.byte	W96
@ 023   ----------------------------------------
	.byte	W96
@ 024   ----------------------------------------
	.byte	PATT
	 .word	mus_rock_tunnel_10_006
@ 025   ----------------------------------------
	.byte		N24   , Cs2 , v127
	.byte	W96
@ 026   ----------------------------------------
	.byte	W96
@ 027   ----------------------------------------
	.byte	W96
@ 028   ----------------------------------------
	.byte	W96
@ 029   ----------------------------------------
	.byte	PATT
	 .word	mus_rock_tunnel_10_011
@ 030   ----------------------------------------
	.byte	PATT
	 .word	mus_rock_tunnel_10_012
@ 031   ----------------------------------------
	.byte	PATT
	 .word	mus_rock_tunnel_10_013
@ 032   ----------------------------------------
	.byte	PATT
	 .word	mus_rock_tunnel_10_011
@ 033   ----------------------------------------
	.byte	PATT
	 .word	mus_rock_tunnel_10_011
@ 034   ----------------------------------------
	.byte	PATT
	 .word	mus_rock_tunnel_10_012
@ 035   ----------------------------------------
	.byte	PATT
	 .word	mus_rock_tunnel_10_013
@ 036   ----------------------------------------
	.byte	PATT
	 .word	mus_rock_tunnel_10_011
@ 037   ----------------------------------------
	.byte	FINE

@**************** Track 11 (Midi-Chn.12) ****************@

mus_rock_tunnel_11:
	.byte	KEYSH , mus_rock_tunnel_key+0
@ 000   ----------------------------------------
	.byte		VOICE , 48
	.byte		VOL   , 71*mus_rock_tunnel_mvl/mxv
	.byte		PAN   , c_v+12
	.byte	W96
@ 001   ----------------------------------------
	.byte	W96
@ 002   ----------------------------------------
	.byte	W96
@ 003   ----------------------------------------
	.byte	W96
@ 004   ----------------------------------------
	.byte	W96
@ 005   ----------------------------------------
	.byte	W96
@ 006   ----------------------------------------
	.byte	W96
@ 007   ----------------------------------------
	.byte		TIE   , Cs2 , v127
	.byte	W96
@ 008   ----------------------------------------
	.byte	W90
	.byte		EOT   
	.byte	W06
@ 009   ----------------------------------------
mus_rock_tunnel_11_009:
	.byte		N48   , En2 , v127
	.byte	W48
	.byte		N42   , Cs2 
	.byte	W48
	.byte	PEND
@ 010   ----------------------------------------
mus_rock_tunnel_11_010:
	.byte		N48   , En2 , v127
	.byte	W48
	.byte		N42   , Cs2 
	.byte	W44
	.byte	W03
	.byte		PAN   , c_v+0
	.byte	W01
	.byte	PEND
@ 011   ----------------------------------------
mus_rock_tunnel_11_011:
	.byte		N48   , Ds1 , v127
	.byte		N48   , Ds2 
	.byte	W48
	.byte		        Dn1 
	.byte		N48   , Dn2 
	.byte	W48
	.byte	PEND
@ 012   ----------------------------------------
mus_rock_tunnel_11_012:
	.byte		N48   , Fn1 , v127
	.byte		N48   , Fn2 
	.byte	W48
	.byte		        En1 
	.byte		N48   , En2 
	.byte	W48
	.byte	PEND
@ 013   ----------------------------------------
mus_rock_tunnel_11_013:
	.byte		N48   , Gs1 , v127
	.byte		N48   , Gs2 
	.byte	W48
	.byte		        Gn1 
	.byte		N48   , Gn2 
	.byte	W48
	.byte	PEND
@ 014   ----------------------------------------
mus_rock_tunnel_11_014:
	.byte		N48   , Cn1 , v127
	.byte		N48   , Cn2 
	.byte	W48
	.byte		        Bn0 
	.byte		N48   , Bn1 
	.byte	W48
	.byte	PEND
@ 015   ----------------------------------------
	.byte	PATT
	 .word	mus_rock_tunnel_11_011
@ 016   ----------------------------------------
	.byte	PATT
	 .word	mus_rock_tunnel_11_012
@ 017   ----------------------------------------
	.byte	PATT
	 .word	mus_rock_tunnel_11_013
@ 018   ----------------------------------------
	.byte	PATT
	 .word	mus_rock_tunnel_11_014
@ 019   ----------------------------------------
mus_rock_tunnel_11_019:
	.byte		TIE   , Cs1 , v127
	.byte		TIE   , Cs2 
	.byte	W96
	.byte	PEND
@ 020   ----------------------------------------
mus_rock_tunnel_11_020:
	.byte	W01
	.byte	W01
	.byte	W01
	.byte	W01
	.byte	W01
	.byte	W01
	.byte	W01
	.byte	W01
	.byte	W01
	.byte	W01
	.byte	W01
	.byte	W01
	.byte	W01
	.byte	W01
	.byte	W01
	.byte	W01
	.byte	W01
	.byte	W01
	.byte	W01
	.byte	W01
	.byte	W01
	.byte	W01
	.byte	W01
	.byte	W01
	.byte	W01
	.byte	W01
	.byte	W01
	.byte	W01
	.byte	W01
	.byte	W01
	.byte	W01
	.byte	W01
	.byte	W01
	.byte	W01
	.byte	W01
	.byte	W01
	.byte	W01
	.byte	W01
	.byte	W01
	.byte	W01
	.byte	W01
	.byte	W01
	.byte	W01
	.byte	W01
	.byte	W01
	.byte	W01
	.byte	W01
	.byte	W01
	.byte	PEND
	.byte		EOT   , Cs1 
	.byte		        Cs2 
	.byte	W48
@ 021   ----------------------------------------
	.byte	W96
@ 022   ----------------------------------------
	.byte	W96
@ 023   ----------------------------------------
	.byte	W96
@ 024   ----------------------------------------
	.byte	W92
	.byte	W03
	.byte		PAN   , c_v+12
	.byte	W01
@ 025   ----------------------------------------
	.byte		TIE   , Cs2 , v127
	.byte	W96
@ 026   ----------------------------------------
	.byte	W90
	.byte		EOT   
	.byte	W06
@ 027   ----------------------------------------
	.byte	PATT
	 .word	mus_rock_tunnel_11_009
@ 028   ----------------------------------------
	.byte	PATT
	 .word	mus_rock_tunnel_11_010
@ 029   ----------------------------------------
	.byte	PATT
	 .word	mus_rock_tunnel_11_011
@ 030   ----------------------------------------
	.byte	PATT
	 .word	mus_rock_tunnel_11_012
@ 031   ----------------------------------------
	.byte	PATT
	 .word	mus_rock_tunnel_11_013
@ 032   ----------------------------------------
	.byte	PATT
	 .word	mus_rock_tunnel_11_014
@ 033   ----------------------------------------
	.byte	PATT
	 .word	mus_rock_tunnel_11_011
@ 034   ----------------------------------------
	.byte	PATT
	 .word	mus_rock_tunnel_11_012
@ 035   ----------------------------------------
	.byte	PATT
	 .word	mus_rock_tunnel_11_013
@ 036   ----------------------------------------
	.byte	PATT
	 .word	mus_rock_tunnel_11_014
@ 037   ----------------------------------------
	.byte	PATT
	 .word	mus_rock_tunnel_11_019
@ 038   ----------------------------------------
	.byte	PATT
	 .word	mus_rock_tunnel_11_020
	.byte		EOT   , Cs1 
	.byte		        Cs2 
	.byte	FINE

@**************** Track 12 (Midi-Chn.13) ****************@

mus_rock_tunnel_12:
	.byte	KEYSH , mus_rock_tunnel_key+0
@ 000   ----------------------------------------
	.byte		VOICE , 60
	.byte		VOL   , 57*mus_rock_tunnel_mvl/mxv
	.byte		PAN   , c_v+0
	.byte	W96
@ 001   ----------------------------------------
	.byte	W96
@ 002   ----------------------------------------
	.byte	W96
@ 003   ----------------------------------------
	.byte	W96
@ 004   ----------------------------------------
	.byte	W96
@ 005   ----------------------------------------
	.byte	W96
@ 006   ----------------------------------------
	.byte	W96
@ 007   ----------------------------------------
	.byte		TIE   , Cs2 , v127
	.byte	W96
@ 008   ----------------------------------------
	.byte	W90
	.byte		EOT   
	.byte	W06
@ 009   ----------------------------------------
mus_rock_tunnel_12_009:
	.byte		N48   , En2 , v127
	.byte	W48
	.byte		N42   , Cs2 
	.byte	W48
	.byte	PEND
@ 010   ----------------------------------------
	.byte	PATT
	 .word	mus_rock_tunnel_12_009
@ 011   ----------------------------------------
	.byte	W96
@ 012   ----------------------------------------
	.byte	W96
@ 013   ----------------------------------------
	.byte	W96
@ 014   ----------------------------------------
	.byte	W96
@ 015   ----------------------------------------
	.byte	W96
@ 016   ----------------------------------------
	.byte	W96
@ 017   ----------------------------------------
	.byte	W96
@ 018   ----------------------------------------
	.byte	W96
@ 019   ----------------------------------------
	.byte	W96
@ 020   ----------------------------------------
	.byte	W96
@ 021   ----------------------------------------
	.byte	W96
@ 022   ----------------------------------------
	.byte	W96
@ 023   ----------------------------------------
	.byte	W96
@ 024   ----------------------------------------
	.byte	W96
@ 025   ----------------------------------------
	.byte		TIE   , Cs2 , v127
	.byte	W96
@ 026   ----------------------------------------
	.byte	W90
	.byte		EOT   
	.byte	W06
@ 027   ----------------------------------------
	.byte	PATT
	 .word	mus_rock_tunnel_12_009
@ 028   ----------------------------------------
	.byte	PATT
	 .word	mus_rock_tunnel_12_009
@ 029   ----------------------------------------
	.byte	W96
@ 030   ----------------------------------------
	.byte	W96
@ 031   ----------------------------------------
	.byte	W96
@ 032   ----------------------------------------
	.byte	W96
@ 033   ----------------------------------------
	.byte	W96
@ 034   ----------------------------------------
	.byte	W96
@ 035   ----------------------------------------
	.byte	W96
@ 036   ----------------------------------------
	.byte	W96
@ 037   ----------------------------------------
	.byte	FINE

@**************** Track 13 (Midi-Chn.14) ****************@

mus_rock_tunnel_13:
	.byte	KEYSH , mus_rock_tunnel_key+0
@ 000   ----------------------------------------
	.byte		VOICE , 70
	.byte		VOL   , 83*mus_rock_tunnel_mvl/mxv
	.byte		PAN   , c_v-26
	.byte		BEND  , c_v-3
	.byte		N36   , Cs1 , v127
	.byte	W36
	.byte		N12   , Dn1 
	.byte	W12
	.byte		N36   , Cn1 
	.byte	W36
	.byte		N12   , Dn1 
	.byte	W12
@ 001   ----------------------------------------
	.byte		N07   , Cs1 
	.byte	W12
	.byte		        Cn1 
	.byte	W12
	.byte		N72   , Bn0 
	.byte	W72
@ 002   ----------------------------------------
	.byte		N07   , Fn1 
	.byte	W12
	.byte		        En1 
	.byte	W12
	.byte		N72   , Ds1 
	.byte	W72
@ 003   ----------------------------------------
	.byte	W96
@ 004   ----------------------------------------
	.byte	W96
@ 005   ----------------------------------------
	.byte	W96
@ 006   ----------------------------------------
	.byte	W96
@ 007   ----------------------------------------
	.byte	W96
@ 008   ----------------------------------------
	.byte	W96
@ 009   ----------------------------------------
	.byte	W96
@ 010   ----------------------------------------
	.byte	W96
@ 011   ----------------------------------------
	.byte	W96
@ 012   ----------------------------------------
	.byte	W96
@ 013   ----------------------------------------
	.byte	W96
@ 014   ----------------------------------------
	.byte	W96
@ 015   ----------------------------------------
mus_rock_tunnel_13_015:
	.byte		N48   , Cn1 , v116
	.byte	W48
	.byte		N36   , Bn0 
	.byte	W36
	.byte		N12   , Cs1 
	.byte	W12
	.byte	PEND
@ 016   ----------------------------------------
mus_rock_tunnel_13_016:
	.byte		N07   , Cn1 , v116
	.byte	W12
	.byte		        Bn0 
	.byte	W12
	.byte		N60   , As0 
	.byte	W66
	.byte		N06   , Cs1 
	.byte	W06
	.byte	PEND
@ 017   ----------------------------------------
mus_rock_tunnel_13_017:
	.byte		N07   , En1 , v116
	.byte	W12
	.byte		        Ds1 
	.byte	W12
	.byte		N72   , Dn1 
	.byte	W72
	.byte	PEND
@ 018   ----------------------------------------
mus_rock_tunnel_13_018:
	.byte		N07   , Cs1 , v116
	.byte	W12
	.byte		        Cn1 
	.byte	W12
	.byte		N72   , Bn0 
	.byte	W72
	.byte	PEND
@ 019   ----------------------------------------
	.byte	W96
@ 020   ----------------------------------------
	.byte	W96
@ 021   ----------------------------------------
	.byte	W96
@ 022   ----------------------------------------
	.byte	W96
@ 023   ----------------------------------------
	.byte	W96
@ 024   ----------------------------------------
	.byte	W96
@ 025   ----------------------------------------
	.byte	W96
@ 026   ----------------------------------------
	.byte	W96
@ 027   ----------------------------------------
	.byte	W96
@ 028   ----------------------------------------
	.byte	W96
@ 029   ----------------------------------------
	.byte	W96
@ 030   ----------------------------------------
	.byte	W96
@ 031   ----------------------------------------
	.byte	W96
@ 032   ----------------------------------------
	.byte	W96
@ 033   ----------------------------------------
	.byte	PATT
	 .word	mus_rock_tunnel_13_015
@ 034   ----------------------------------------
	.byte	PATT
	 .word	mus_rock_tunnel_13_016
@ 035   ----------------------------------------
	.byte	PATT
	 .word	mus_rock_tunnel_13_017
@ 036   ----------------------------------------
	.byte	PATT
	 .word	mus_rock_tunnel_13_018
@ 037   ----------------------------------------
	.byte	FINE

@**************** Track 14 (Midi-Chn.15) ****************@

mus_rock_tunnel_14:
	.byte	KEYSH , mus_rock_tunnel_key+0
@ 000   ----------------------------------------
	.byte		VOICE , 16
	.byte		VOL   , 70*mus_rock_tunnel_mvl/mxv
	.byte		PAN   , c_v-7
	.byte		BEND  , c_v-1
	.byte	W96
@ 001   ----------------------------------------
	.byte	W96
@ 002   ----------------------------------------
	.byte	W96
@ 003   ----------------------------------------
	.byte	W24
	.byte		N72   , Cs3 , v127
	.byte	W72
@ 004   ----------------------------------------
	.byte		N92   
	.byte	W96
@ 005   ----------------------------------------
mus_rock_tunnel_14_005:
	.byte		N48   , Cs3 , v127
	.byte	W48
	.byte		N44   
	.byte	W48
	.byte	PEND
@ 006   ----------------------------------------
	.byte	PATT
	 .word	mus_rock_tunnel_14_005
@ 007   ----------------------------------------
	.byte	W96
@ 008   ----------------------------------------
	.byte	W96
@ 009   ----------------------------------------
	.byte	W96
@ 010   ----------------------------------------
	.byte	W96
@ 011   ----------------------------------------
mus_rock_tunnel_14_011:
	.byte		N48   , Ds3 , v127
	.byte	W48
	.byte		        Dn3 
	.byte	W48
	.byte	PEND
@ 012   ----------------------------------------
mus_rock_tunnel_14_012:
	.byte		N48   , Fn3 , v127
	.byte	W48
	.byte		        En3 
	.byte	W48
	.byte	PEND
@ 013   ----------------------------------------
mus_rock_tunnel_14_013:
	.byte		N48   , Gs3 , v127
	.byte	W48
	.byte		        Gn3 
	.byte	W48
	.byte	PEND
@ 014   ----------------------------------------
mus_rock_tunnel_14_014:
	.byte		N48   , Cn3 , v127
	.byte	W48
	.byte		        Bn2 
	.byte	W48
	.byte	PEND
@ 015   ----------------------------------------
	.byte	PATT
	 .word	mus_rock_tunnel_14_011
@ 016   ----------------------------------------
	.byte	PATT
	 .word	mus_rock_tunnel_14_012
@ 017   ----------------------------------------
	.byte	PATT
	 .word	mus_rock_tunnel_14_013
@ 018   ----------------------------------------
	.byte	PATT
	 .word	mus_rock_tunnel_14_014
@ 019   ----------------------------------------
	.byte		N96   , Cs3 , v127
	.byte	W96
@ 020   ----------------------------------------
	.byte		N92   
	.byte	W96
@ 021   ----------------------------------------
	.byte		N96   
	.byte	W96
@ 022   ----------------------------------------
	.byte		N92   
	.byte	W96
@ 023   ----------------------------------------
	.byte	PATT
	 .word	mus_rock_tunnel_14_005
@ 024   ----------------------------------------
	.byte	PATT
	 .word	mus_rock_tunnel_14_005
@ 025   ----------------------------------------
	.byte	W96
@ 026   ----------------------------------------
	.byte	W96
@ 027   ----------------------------------------
	.byte	W96
@ 028   ----------------------------------------
	.byte	W96
@ 029   ----------------------------------------
	.byte	PATT
	 .word	mus_rock_tunnel_14_011
@ 030   ----------------------------------------
	.byte	PATT
	 .word	mus_rock_tunnel_14_012
@ 031   ----------------------------------------
	.byte	PATT
	 .word	mus_rock_tunnel_14_013
@ 032   ----------------------------------------
	.byte	PATT
	 .word	mus_rock_tunnel_14_014
@ 033   ----------------------------------------
	.byte	PATT
	 .word	mus_rock_tunnel_14_011
@ 034   ----------------------------------------
	.byte	PATT
	 .word	mus_rock_tunnel_14_012
@ 035   ----------------------------------------
	.byte	PATT
	 .word	mus_rock_tunnel_14_013
@ 036   ----------------------------------------
	.byte	PATT
	 .word	mus_rock_tunnel_14_014
@ 037   ----------------------------------------
	.byte		N96   , Cs3 , v127
	.byte	W96
@ 038   ----------------------------------------
	.byte		N92   
	.byte	W92
	.byte	W01
	.byte	FINE

@******************************************************@
	.align	2

mus_rock_tunnel:
	.byte	14	@ NumTrks
	.byte	0	@ NumBlks
	.byte	mus_rock_tunnel_pri	@ Priority
	.byte	mus_rock_tunnel_rev	@ Reverb.

	.word	mus_rock_tunnel_grp

	.word	mus_rock_tunnel_1
	.word	mus_rock_tunnel_2
	.word	mus_rock_tunnel_3
	.word	mus_rock_tunnel_4
	.word	mus_rock_tunnel_5
	.word	mus_rock_tunnel_6
	.word	mus_rock_tunnel_7
	.word	mus_rock_tunnel_8
	.word	mus_rock_tunnel_9
	.word	mus_rock_tunnel_10
	.word	mus_rock_tunnel_11
	.word	mus_rock_tunnel_12
	.word	mus_rock_tunnel_13
	.word	mus_rock_tunnel_14

	.end
